<svg xmlns="http://www.w3.org/2000/svg" viewBox="0 0 1280 300"><defs><pattern id="hs" width="4" height="4" patternUnits="userSpaceOnUse"><rect width="4" height="2" fill="#0A121C"/></pattern><filter id="hf"><feGaussianBlur stdDeviation="6" result="b"/><feMerge><feMergeNode in="b"/><feMergeNode in="SourceGraphic"/></feMerge></filter><radialGradient id="hr" cx=".5" cy=".5" r=".7"><stop offset="0" stop-color="#0E2A3C"/><stop offset="1" stop-color="#05070B"/></radialGradient></defs><rect width="1280" height="300" fill="#05070B"/><rect width="1280" height="300" fill="url(#hr)"/><g filter="url(#hf)"><path d="M488.1,98.7C493.5,98.7,498.2,99.5,502.2,101L502.2,111.6C498.3,109.4 493.6,108.2 488,108.2 483.3,108.2 479.4,109.8 476.5,112.8 473.5,115.9 472,120 472,125.1 472,130.3 473.3,134.3 476,137.1 478.7,139.9 482.2,141.4 486.8,141.4 489.5,141.4 491.6,141 493.2,140.2L493.2,130.3 483.1,130.3 483.1,121.3 504.6,121.3 504.6,146.6C499.7,149.5 493.6,150.9 486.2,150.9 478.1,150.9 471.7,148.6 467.1,144.1 462.4,139.7 460.1,133.5 460.1,125.6 460.1,117.7 462.6,111.2 467.7,106.2 472.8,101.2 479.6,98.7 488.1,98.7z M513.3,96.7L524.4,96.7 524.4,119.3 524.6,119.3C527.3,115.2 531,113.1 535.6,113.1 543.8,113.1 547.9,118 547.9,127.9L547.9,150 536.8,150 536.8,129.5C536.8,124.3 534.9,121.6 531,121.6 529.1,121.6 527.5,122.4 526.2,123.8 525,125.3 524.4,127.2 524.4,129.5L524.4,150 513.3,150 513.3,96.7z M574.1,121.6C571.5,121.6 569.4,122.5 568,124.3 566.5,126.1 565.8,128.7 565.8,132 565.8,138.9 568.6,142.4 574.2,142.4 579.5,142.4 582.1,138.8 582.1,131.7 582.1,125 579.5,121.6 574.1,121.6z M574.3,113.1C580.3,113.1 585,114.8 588.4,118.2 591.8,121.5 593.5,126 593.5,131.5 593.5,137.5 591.7,142.2 588.2,145.7 584.7,149.1 579.9,150.9 573.8,150.9 567.8,150.9 563.1,149.2 559.7,145.8 556.2,142.5 554.5,137.9 554.5,132.1 554.5,126.2 556.3,121.5 559.9,118.2 563.4,114.8 568.2,113.1 574.3,113.1z M614.1,113.1C615.7,113.1 617.3,113.2 618.9,113.5 620.6,113.7 622.2,114.1 623.8,114.6L623.8,123.1C622.4,122.3 620.9,121.7 619.3,121.3 617.7,120.9 616.1,120.7 614.5,120.7 613.8,120.7 613.1,120.7 612.5,120.9 611.8,121 611.3,121.2 610.8,121.4 610.3,121.7 609.9,122 609.6,122.4 609.3,122.8 609.2,123.2 609.2,123.7 609.2,124.4 609.4,124.9 609.8,125.4 610.2,125.9 610.8,126.3 611.5,126.6 612.1,126.9 612.9,127.2 613.7,127.5 614.6,127.8 615.4,128.1 616.2,128.3 617.7,128.9 619,129.4 620.2,130 621.4,130.6 622.4,131.4 623.3,132.2 624.2,133 624.8,134 625.3,135.1 625.7,136.2 626,137.5 626,139 626,141.1 625.5,143 624.6,144.5 623.6,146 622.4,147.2 620.9,148.2 619.3,149.1 617.6,149.8 615.6,150.2 613.6,150.7 611.5,150.9 609.3,150.9 605.4,150.9 601.7,150.3 598.3,149.1L598.3,140.1C600.1,141.2 602,142 603.8,142.5 605.6,143.1 607.3,143.3 608.9,143.3 610.9,143.3 612.5,143.1 613.6,142.5 614.7,142 615.3,141.2 615.3,140.1 615.3,139.3 615,138.8 614.5,138.3 614,137.8 613.3,137.4 612.5,137.1 611.7,136.7 610.8,136.4 609.9,136.1 608.9,135.8 608,135.5 607.1,135.2 605.7,134.6 604.4,134 603.3,133.4 602.2,132.8 601.3,132.1 600.6,131.3 599.8,130.4 599.3,129.5 598.9,128.4 598.5,127.3 598.3,126.1 598.3,124.6 598.3,122.6 598.8,120.8 599.6,119.4 600.5,117.9 601.7,116.7 603.2,115.8 604.6,114.9 606.3,114.2 608.2,113.8 610.1,113.3 612,113.1 614.1,113.1z M646,103.1L646,114 654.1,114 654.1,122.2 646,122.2 646,136.7C646,140.5 647.5,142.4 650.5,142.4 651.7,142.4 652.9,142 654.1,141.4L654.1,149.6C652.5,150.4 650,150.9 646.7,150.9 638.9,150.9 635,146.8 635,138.7L635,122.2 629.1,122.2 629.1,114 635,114 635,106.2 646,103.1z" fill="#F3F7FF"/><path d="M672.8,108.8L672.8,140.8 678.4,140.8C683.4,140.8 687.2,139.3 690,136.4 692.8,133.4 694.2,129.4 694.2,124.3 694.2,119.5 692.8,115.7 690.1,113 687.3,110.2 683.4,108.8 678.4,108.8L672.8,108.8z M661.5,99.6L679.3,99.6C697.2,99.6 706.2,107.8 706.2,124.2 706.2,132 703.7,138.3 698.9,143 694,147.7 687.5,150 679.3,150L661.5,150 661.5,99.6z M729.2,120.6C727.5,120.6 725.9,121.3 724.6,122.8 723.3,124.3 722.5,126.1 722.2,128.3L735.5,128.3C735.5,123.2,733.4,120.6,729.2,120.6z M729.3,113.1C734.6,113.1 738.6,114.7 741.5,117.8 744.4,120.9 745.8,125.1 745.8,130.5L745.8,135.2 722.3,135.2C722.7,140.4 726,143 732.2,143 736.2,143 739.6,142.1 742.6,140.2L742.6,148.2C739.3,150 735,150.9 729.7,150.9 723.9,150.9 719.3,149.3 716.1,146 712.9,142.8 711.3,138.3 711.3,132.6 711.3,126.6 713,121.9 716.5,118.4 720,114.9 724.3,113.1 729.3,113.1z M770.5,113.1C774.7,113.1,777.8,113.7,779.7,114.8L779.7,124.2C777.4,122.5 774.8,121.6 771.9,121.6 768.7,121.6 766.2,122.6 764.3,124.4 762.5,126.3 761.6,128.9 761.6,132.1 761.6,135.3 762.4,137.8 764.2,139.6 766,141.5 768.5,142.4 771.6,142.4 774.3,142.4 777,141.5 779.7,139.8L779.7,148.7C777.2,150.2 773.6,150.9 768.8,150.9 763.3,150.9 758.8,149.2 755.4,145.9 752,142.5 750.3,138.2 750.3,132.9 750.3,126.8 752.1,121.9 755.8,118.4 759.4,114.9 764.3,113.1 770.5,113.1z M787,96.7L798.1,96.7 798.1,130.6 798.2,130.6 808.9,114 822.1,114 809.2,130.9 823,150 809.7,150 798.2,132.1 798.1,132.1 798.1,150 787,150 787,96.7z" fill="#3DE3FF"/></g><g opacity=".85"><path d="M391.2,191.7L392.7,191.7 392.7,205 391.2,205 391.2,191.7z M396.2,191.7L398.3,191.7 404.9,202.1C405.2,202.6,405.4,202.9,405.4,203L405.5,203C405.4,202.6,405.4,202,405.4,201.1L405.4,191.7 407,191.7 407,205 405,205 398.2,194.4C398,194.1,397.9,193.9,397.8,193.6L397.7,193.6C397.8,193.8,397.8,194.5,397.8,195.4L397.8,205 396.2,205 396.2,191.7z M412,193.1L412,203.6 414,203.6C415.7,203.6 417.1,203.1 418.1,202.2 419,201.3 419.5,199.9 419.5,198.2 419.5,194.8 417.7,193.1 414.1,193.1L412,193.1z M410.4,191.7L414.1,191.7C418.8,191.7 421.1,193.9 421.1,198.2 421.1,200.2 420.5,201.9 419.2,203.1 417.9,204.4 416.1,205 414,205L410.4,205 410.4,191.7z M423.8,191.7L430.5,191.7 430.5,193.1 425.3,193.1 425.3,197.5 430.1,197.5 430.1,198.9 425.3,198.9 425.3,203.6 430.8,203.6 430.8,205 423.8,205 423.8,191.7z M434.9,193.1L434.9,198.6 436.6,198.6C437.6,198.6 438.5,198.3 439,197.8 439.6,197.3 439.9,196.6 439.9,195.7 439.9,194 438.8,193.1 436.8,193.1L434.9,193.1z M433.4,191.7L437,191.7C438.5,191.7 439.6,192 440.3,192.7 441.1,193.4 441.5,194.4 441.5,195.7 441.5,196.9 441.1,198 440.2,198.8 439.3,199.6 438.2,200 436.7,200L434.9,200 434.9,205 433.4,205 433.4,191.7z M444,191.7L450.8,191.7 450.8,193.1 445.6,193.1 445.6,197.5 450.4,197.5 450.4,198.9 445.6,198.9 445.6,203.6 451.1,203.6 451.1,205 444,205 444,191.7z M453.6,191.7L455.6,191.7 462.3,202.1C462.6,202.6,462.8,202.9,462.8,203L462.9,203C462.8,202.6,462.8,202,462.8,201.1L462.8,191.7 464.4,191.7 464.4,205 462.4,205 455.6,194.4C455.4,194.1,455.3,193.9,455.2,193.6L455.1,193.6C455.2,193.8,455.2,194.5,455.2,195.4L455.2,205 453.6,205 453.6,191.7z M469.4,193.1L469.4,203.6 471.4,203.6C473.1,203.6 474.5,203.1 475.5,202.2 476.4,201.3 476.9,199.9 476.9,198.2 476.9,194.8 475.1,193.1 471.5,193.1L469.4,193.1z M467.8,191.7L471.5,191.7C476.2,191.7 478.5,193.9 478.5,198.2 478.5,200.2 477.9,201.9 476.6,203.1 475.3,204.4 473.5,205 471.4,205L467.8,205 467.8,191.7z M481.2,191.7L487.9,191.7 487.9,193.1 482.7,193.1 482.7,197.5 487.5,197.5 487.5,198.9 482.7,198.9 482.7,203.6 488.2,203.6 488.2,205 481.2,205 481.2,191.7z M490.8,191.7L492.8,191.7 499.5,202.1C499.7,202.6,499.9,202.9,500,203L500,203C500,202.6,499.9,202,499.9,201.1L499.9,191.7 501.5,191.7 501.5,205 499.6,205 492.7,194.4C492.6,194.1,492.4,193.9,492.3,193.6L492.3,193.6C492.3,193.8,492.3,194.5,492.3,195.4L492.3,205 490.8,205 490.8,191.7z M503.6,191.7L512.9,191.7 512.9,193.1 509,193.1 509,205 507.5,205 507.5,193.1 503.6,193.1 503.6,191.7z M521.7,193.1L521.7,198.6 523.3,198.6C524.4,198.6 525.2,198.3 525.8,197.8 526.4,197.3 526.6,196.6 526.6,195.7 526.6,194 525.6,193.1 523.5,193.1L521.7,193.1z M520.1,191.7L523.8,191.7C525.2,191.7 526.3,192 527.1,192.7 527.9,193.4 528.3,194.4 528.3,195.7 528.3,196.9 527.8,198 527,198.8 526.1,199.6 524.9,200 523.5,200L521.7,200 521.7,205 520.1,205 520.1,191.7z M536.3,192.9C534.9,192.9 533.7,193.4 532.9,194.4 532,195.4 531.5,196.7 531.5,198.4 531.5,200 532,201.3 532.8,202.3 533.7,203.3 534.8,203.8 536.1,203.8 537.6,203.8 538.8,203.3 539.6,202.4 540.4,201.4 540.9,200.1 540.9,198.4 540.9,196.6 540.5,195.3 539.6,194.3 538.8,193.4 537.7,192.9 536.3,192.9z M536.4,191.5C538.2,191.5 539.7,192.1 540.8,193.3 541.9,194.6 542.5,196.2 542.5,198.2 542.5,200.4 541.9,202.1 540.8,203.3 539.6,204.6 538.1,205.2 536.1,205.2 534.3,205.2 532.8,204.6 531.6,203.4 530.5,202.1 529.9,200.5 529.9,198.5 529.9,196.4 530.5,194.7 531.6,193.4 532.8,192.1 534.4,191.5 536.4,191.5z M543.1,191.7L544.9,191.7 547.7,201.9C547.8,202.3,547.9,202.8,547.9,203.2L547.9,203.2C548,202.9,548.1,202.5,548.2,201.9L551.2,191.7 552.7,191.7 555.5,202C555.6,202.3,555.7,202.7,555.7,203.2L555.8,203.2C555.8,202.9,555.9,202.5,556,201.9L558.7,191.7 560.4,191.7 556.7,205 554.8,205 552.1,195.3C552,194.9,551.9,194.4,551.9,193.9L551.8,193.9C551.8,194.4,551.7,194.8,551.6,195.3L548.8,205 547,205 543.1,191.7z M562.4,191.7L569.1,191.7 569.1,193.1 563.9,193.1 563.9,197.5 568.7,197.5 568.7,198.9 563.9,198.9 563.9,203.6 569.4,203.6 569.4,205 562.4,205 562.4,191.7z M573.6,193.1L573.6,197.9 575.7,197.9C576.1,197.9 576.4,197.9 576.8,197.8 577.1,197.6 577.4,197.5 577.6,197.2 577.9,197 578,196.8 578.2,196.4 578.3,196.1 578.4,195.8 578.4,195.4 578.4,194.7 578.1,194.1 577.7,193.7 577.2,193.3 576.6,193.1 575.7,193.1L573.6,193.1z M572,191.7L576,191.7C576.5,191.7 577.1,191.8 577.6,191.9 578.1,192.1 578.5,192.3 578.9,192.6 579.2,192.9 579.5,193.2 579.7,193.7 579.9,194.1 580,194.6 580,195.2 580,195.7 579.9,196.1 579.8,196.5 579.7,196.9 579.5,197.2 579.2,197.6 579,197.9 578.6,198.1 578.3,198.3 577.9,198.5 577.5,198.7 577.1,198.8L577.1,198.9C577.3,199 577.5,199.1 577.6,199.2 577.8,199.3 578,199.5 578.1,199.6 578.3,199.8 578.4,200 578.6,200.2 578.7,200.5 578.9,200.7 579,201L581.5,205 579.7,205 577.5,201.3C577.2,200.9 577.1,200.6 576.9,200.4 576.7,200.1 576.5,199.9 576.3,199.8 576.1,199.6 575.9,199.5 575.6,199.4 575.4,199.4 575.1,199.3 574.8,199.3L573.6,199.3 573.6,205 572,205 572,191.7z M592.2,198.1C591.8,198.2 591.4,198.4 591.1,198.6 590.8,198.8 590.5,199 590.2,199.2 590,199.5 589.8,199.8 589.7,200.1 589.5,200.5 589.5,200.9 589.5,201.3 589.5,201.8 589.6,202.1 589.7,202.4 589.9,202.8 590.1,203 590.3,203.3 590.6,203.5 590.9,203.6 591.3,203.7 591.6,203.8 592,203.9 592.4,203.9 592.9,203.9 593.3,203.8 593.7,203.7 594.1,203.6 594.5,203.5 594.8,203.3 595.2,203.2 595.5,203 595.7,202.7 596,202.5 596.3,202.3 596.5,202 596.1,201.4 595.8,200.9 595.4,200.5 595.1,200.1 594.8,199.7 594.5,199.4 594.2,199.1 593.8,198.9 593.4,198.7 593.1,198.4 592.6,198.2 592.2,198.1z M592.9,192.7C592.3,192.7 591.8,192.9 591.5,193.2 591.1,193.5 590.9,194 590.9,194.5 590.9,194.8 591,195 591,195.2 591.1,195.5 591.2,195.7 591.4,195.9 591.5,196 591.7,196.2 591.8,196.4 592,196.5 592.2,196.6 592.4,196.7 593.2,196.5 593.8,196.2 594.2,195.8 594.6,195.4 594.8,195 594.8,194.4 594.8,194.1 594.7,193.9 594.6,193.6 594.5,193.4 594.3,193.2 594.2,193.1 594,193 593.8,192.9 593.6,192.8 593.3,192.7 593.1,192.7 592.9,192.7z M592.9,191.5C593.4,191.5 593.8,191.5 594.2,191.7 594.6,191.8 595,192 595.3,192.2 595.6,192.5 595.8,192.8 595.9,193.1 596.1,193.5 596.2,193.9 596.2,194.3 596.2,195 596,195.7 595.6,196.1 595.1,196.6 594.5,197.1 593.6,197.4 594.1,197.6 594.5,197.8 594.8,198 595.2,198.3 595.5,198.5 595.8,198.8 596.1,199.1 596.3,199.4 596.6,199.8 596.8,200.1 597.1,200.5 597.3,200.8 597.8,200.1 598.2,199.4 598.5,198.5 598.7,197.7 598.9,196.8 598.9,195.9 598.9,195.6 598.8,195.4 598.8,195.2 598.8,195 598.7,194.8 598.7,194.6L600.2,194.6C600.2,194.8 600.2,195 600.3,195.2 600.3,195.4 600.3,195.6 600.3,195.8 600.3,196.4 600.2,197 600.1,197.5 600,198.1 599.8,198.7 599.6,199.2 599.4,199.7 599.2,200.2 599,200.7 598.7,201.2 598.4,201.6 598.1,202 598.3,202.3 598.5,202.6 598.7,202.8 598.9,203 599.1,203.2 599.3,203.4 599.4,203.5 599.6,203.6 599.8,203.7 600,203.8 600.2,203.8 600.5,203.8 600.7,203.8 600.9,203.8 601.1,203.7 601.2,203.7 601.4,203.6 601.6,203.5L601.6,205C601.4,205 601.2,205.1 600.9,205.1 600.7,205.2 600.5,205.2 600.2,205.2 599.9,205.2 599.6,205.2 599.3,205.1 599,205 598.8,204.8 598.5,204.7 598.3,204.5 598.1,204.3 597.9,204 597.7,203.8 597.4,203.5 597.2,203.2 597,203.4 596.7,203.7 596.4,203.9 596,204.2 595.7,204.4 595.3,204.6 594.9,204.8 594.4,204.9 594,205 593.5,205.2 593,205.2 592.4,205.2 591.8,205.2 591.2,205.1 590.6,205 590,204.8 589.6,204.6 589.2,204.2 588.8,203.9 588.5,203.5 588.3,203 588,202.5 587.9,202 587.9,201.4 587.9,200.4 588.2,199.6 588.7,199 589.3,198.3 590,197.7 591,197.3 590.8,197.2 590.6,197 590.5,196.8 590.3,196.6 590.1,196.4 590,196.2 589.8,196 589.7,195.7 589.6,195.4 589.5,195.2 589.5,194.9 589.5,194.5 589.5,194 589.6,193.6 589.7,193.2 589.9,192.8 590.2,192.5 590.5,192.3 590.8,192 591.1,191.8 591.6,191.7 592,191.5 592.4,191.5 592.9,191.5z M609,191.7L615.7,191.7 615.7,193.1 610.5,193.1 610.5,197.7 615.3,197.7 615.3,199.1 610.5,199.1 610.5,205 609,205 609,191.7z M621.5,193.3C621.4,193.7,621.3,194,621.3,194.2L619.2,199.9 623.8,199.9 621.7,194.2C621.6,194,621.6,193.7,621.5,193.3L621.5,193.3z M620.7,191.7L622.3,191.7 627.4,205 625.7,205 624.3,201.3 618.7,201.3 617.3,205 615.6,205 620.7,191.7z M629.4,191.7L631.4,191.7 638.1,202.1C638.4,202.6,638.5,202.9,638.6,203L638.7,203C638.6,202.6,638.6,202,638.6,201.1L638.6,191.7 640.1,191.7 640.1,205 638.2,205 631.4,194.4C631.2,194.1,631,193.9,630.9,193.6L630.9,193.6C630.9,193.8,631,194.5,631,195.4L631,205 629.4,205 629.4,191.7z M654.7,191.5C656,191.5,657,191.7,657.9,192L657.9,193.7C656.9,193.1 655.9,192.9 654.7,192.9 653.2,192.9 651.9,193.4 651,194.4 650,195.4 649.6,196.8 649.6,198.5 649.6,200.1 650,201.4 650.9,202.4 651.8,203.3 653,203.8 654.4,203.8 655.7,203.8 656.9,203.5 657.9,202.9L657.9,204.4C656.9,205 655.7,205.2 654.2,205.2 652.3,205.2 650.8,204.6 649.6,203.4 648.5,202.2 647.9,200.6 647.9,198.6 647.9,196.5 648.6,194.8 649.9,193.4 651.1,192.1 652.8,191.5 654.7,191.5z M665.5,192.9C664.1,192.9 663,193.4 662.1,194.4 661.3,195.4 660.8,196.7 660.8,198.4 660.8,200 661.2,201.3 662.1,202.3 662.9,203.3 664.1,203.8 665.4,203.8 666.9,203.8 668,203.3 668.9,202.4 669.7,201.4 670.1,200.1 670.1,198.4 670.1,196.6 669.7,195.3 668.9,194.3 668.1,193.4 667,192.9 665.5,192.9z M665.6,191.5C667.5,191.5 669,192.1 670.1,193.3 671.2,194.6 671.8,196.2 671.8,198.2 671.8,200.4 671.2,202.1 670,203.3 668.9,204.6 667.4,205.2 665.4,205.2 663.5,205.2 662,204.6 660.9,203.4 659.8,202.1 659.2,200.5 659.2,198.5 659.2,196.4 659.8,194.7 660.9,193.4 662.1,192.1 663.7,191.5 665.6,191.5z M674.4,191.7L676.4,191.7 683.1,202.1C683.4,202.6,683.5,202.9,683.6,203L683.6,203C683.6,202.6,683.6,202,683.6,201.1L683.6,191.7 685.1,191.7 685.1,205 683.2,205 676.4,194.4C676.2,194.1,676,193.9,675.9,193.6L675.9,193.6C675.9,193.8,675.9,194.5,675.9,195.4L675.9,205 674.4,205 674.4,191.7z M687.2,191.7L696.5,191.7 696.5,193.1 692.6,193.1 692.6,205 691.1,205 691.1,193.1 687.2,193.1 687.2,191.7z M700.1,193.1L700.1,197.9 702.2,197.9C702.6,197.9 703,197.9 703.3,197.8 703.6,197.6 703.9,197.5 704.2,197.2 704.4,197 704.6,196.8 704.7,196.4 704.9,196.1 704.9,195.8 704.9,195.4 704.9,194.7 704.7,194.1 704.2,193.7 703.8,193.3 703.1,193.1 702.2,193.1L700.1,193.1z M698.6,191.7L702.5,191.7C703.1,191.7 703.6,191.8 704.1,191.9 704.6,192.1 705.1,192.3 705.4,192.6 705.8,192.9 706.1,193.2 706.3,193.7 706.5,194.1 706.6,194.6 706.6,195.2 706.6,195.7 706.5,196.1 706.4,196.5 706.2,196.9 706,197.2 705.8,197.6 705.5,197.9 705.2,198.1 704.8,198.3 704.5,198.5 704.1,198.7 703.6,198.8L703.6,198.9C703.8,199 704,199.1 704.2,199.2 704.4,199.3 704.5,199.5 704.7,199.6 704.8,199.8 705,200 705.1,200.2 705.3,200.5 705.4,200.7 705.6,201L708.1,205 706.2,205 704,201.3C703.8,200.9 703.6,200.6 703.4,200.4 703.2,200.1 703,199.9 702.8,199.8 702.6,199.6 702.4,199.5 702.2,199.4 701.9,199.4 701.7,199.3 701.4,199.3L700.1,199.3 700.1,205 698.6,205 698.6,191.7z M715.2,192.9C713.8,192.9 712.7,193.4 711.8,194.4 710.9,195.4 710.5,196.7 710.5,198.4 710.5,200 710.9,201.3 711.8,202.3 712.6,203.3 713.7,203.8 715.1,203.8 716.6,203.8 717.7,203.3 718.5,202.4 719.4,201.4 719.8,200.1 719.8,198.4 719.8,196.6 719.4,195.3 718.6,194.3 717.8,193.4 716.6,192.9 715.2,192.9z M715.3,191.5C717.2,191.5 718.6,192.1 719.8,193.3 720.9,194.6 721.4,196.2 721.4,198.2 721.4,200.4 720.9,202.1 719.7,203.3 718.6,204.6 717,205.2 715.1,205.2 713.2,205.2 711.7,204.6 710.6,203.4 709.4,202.1 708.9,200.5 708.9,198.5 708.9,196.4 709.4,194.7 710.6,193.4 711.7,192.1 713.3,191.5 715.3,191.5z M724.1,191.7L725.6,191.7 725.6,203.6 731,203.6 731,205 724.1,205 724.1,191.7z M738.2,191.7L745,191.7 745,193.1 739.8,193.1 739.8,197.7 744.6,197.7 744.6,199.1 739.8,199.1 739.8,205 738.2,205 738.2,191.7z M753,192.9C751.6,192.9 750.4,193.4 749.5,194.4 748.7,195.4 748.2,196.7 748.2,198.4 748.2,200 748.7,201.3 749.5,202.3 750.4,203.3 751.5,203.8 752.8,203.8 754.3,203.8 755.5,203.3 756.3,202.4 757.1,201.4 757.6,200.1 757.6,198.4 757.6,196.6 757.1,195.3 756.3,194.3 755.5,193.4 754.4,192.9 753,192.9z M753.1,191.5C754.9,191.5 756.4,192.1 757.5,193.3 758.6,194.6 759.2,196.2 759.2,198.2 759.2,200.4 758.6,202.1 757.5,203.3 756.3,204.6 754.8,205.2 752.8,205.2 751,205.2 749.4,204.6 748.3,203.4 747.2,202.1 746.6,200.5 746.6,198.5 746.6,196.4 747.2,194.7 748.3,193.4 749.5,192.1 751.1,191.5 753.1,191.5z M763.4,193.1L763.4,197.9 765.5,197.9C765.9,197.9 766.2,197.9 766.6,197.8 766.9,197.6 767.2,197.5 767.4,197.2 767.7,197 767.8,196.8 768,196.4 768.1,196.1 768.2,195.8 768.2,195.4 768.2,194.7 768,194.1 767.5,193.7 767,193.3 766.4,193.1 765.5,193.1L763.4,193.1z M761.8,191.7L765.8,191.7C766.4,191.7 766.9,191.8 767.4,191.9 767.9,192.1 768.3,192.3 768.7,192.6 769,192.9 769.3,193.2 769.5,193.7 769.7,194.1 769.8,194.6 769.8,195.2 769.8,195.7 769.8,196.1 769.6,196.5 769.5,196.9 769.3,197.2 769,197.6 768.8,197.9 768.5,198.1 768.1,198.3 767.7,198.5 767.3,198.7 766.9,198.8L766.9,198.9C767.1,199 767.3,199.1 767.5,199.2 767.6,199.3 767.8,199.5 767.9,199.6 768.1,199.8 768.2,200 768.4,200.2 768.5,200.5 768.7,200.7 768.8,201L771.3,205 769.5,205 767.3,201.3C767.1,200.9 766.9,200.6 766.7,200.4 766.5,200.1 766.3,199.9 766.1,199.8 765.9,199.6 765.7,199.5 765.4,199.4 765.2,199.4 764.9,199.3 764.6,199.3L763.4,199.3 763.4,205 761.8,205 761.8,191.7z M778.4,191.7L780.4,191.7 784.5,201C784.8,201.7,785,202.2,785.1,202.6L785.2,202.6C785.5,201.8,785.7,201.3,785.8,200.9L790,191.7 791.9,191.7 791.9,205 790.4,205 790.4,196.1C790.4,195.4,790.4,194.5,790.5,193.5L790.5,193.5C790.3,194.1,790.2,194.5,790.1,194.8L785.5,205 784.8,205 780.2,194.9C780.1,194.6,780,194.1,779.8,193.5L779.8,193.5C779.9,194,779.9,194.9,779.9,196.1L779.9,205 778.4,205 778.4,191.7z M799.5,191.5C800.8,191.5,801.7,191.6,802.3,191.9L802.3,193.7C801.5,193.2 800.5,192.9 799.3,192.9 799,192.9 798.6,192.9 798.3,193 797.9,193.1 797.6,193.2 797.4,193.3 797.1,193.5 796.9,193.7 796.7,194 796.6,194.2 796.5,194.5 796.5,194.9 796.5,195.2 796.5,195.5 796.7,195.8 796.8,196 797,196.2 797.2,196.4 797.5,196.7 797.8,196.8 798.1,197 798.5,197.2 798.9,197.4 799.4,197.7 799.8,197.9 800.3,198.2 800.7,198.4 801.1,198.7 801.5,199 801.8,199.3 802.2,199.6 802.4,199.9 802.6,200.3 802.8,200.7 802.9,201.1 802.9,201.6 802.9,202.3 802.7,202.9 802.5,203.3 802.2,203.8 801.9,204.1 801.5,204.4 801,204.7 800.5,204.9 799.9,205 799.4,205.2 798.8,205.2 798.1,205.2 797.9,205.2 797.7,205.2 797.4,205.2 797.1,205.1 796.7,205.1 796.4,205 796.1,205 795.8,204.9 795.5,204.8 795.2,204.7 795,204.6 794.8,204.5L794.8,202.6C795,202.8 795.3,203 795.6,203.1 795.9,203.3 796.2,203.4 796.5,203.5 796.8,203.6 797.2,203.7 797.5,203.7 797.8,203.8 798.1,203.8 798.4,203.8 799.3,203.8 800.1,203.6 800.5,203.3 801,202.9 801.2,202.4 801.2,201.8 801.2,201.4 801.2,201.1 801,200.8 800.9,200.5 800.6,200.3 800.4,200.1 800.1,199.9 799.7,199.7 799.4,199.5 799,199.3 798.6,199 798.1,198.8 797.7,198.6 797.2,198.3 796.8,198.1 796.4,197.9 796.1,197.6 795.8,197.3 795.5,197 795.3,196.7 795.1,196.3 794.9,196 794.8,195.5 794.8,195 794.8,194.4 795,193.9 795.2,193.4 795.5,193 795.8,192.6 796.3,192.3 796.7,192 797.2,191.8 797.8,191.7 798.3,191.5 798.9,191.5 799.5,191.5z M805.5,191.7L807.1,191.7 807.1,205 805.5,205 805.5,191.7z M815.8,191.7L817.3,191.7 817.3,203.6 822.7,203.6 822.7,205 815.8,205 815.8,191.7z M829.6,193.3C829.5,193.7,829.5,194,829.4,194.2L827.3,199.9 831.9,199.9 829.9,194.2C829.8,194,829.7,193.7,829.6,193.3L829.6,193.3z M828.8,191.7L830.5,191.7 835.6,205 833.9,205 832.4,201.3 826.8,201.3 825.5,205 823.7,205 828.8,191.7z M839.1,193.1L839.1,198.6 840.7,198.6C841.8,198.6 842.6,198.3 843.2,197.8 843.8,197.3 844,196.6 844,195.7 844,194 843,193.1 840.9,193.1L839.1,193.1z M837.5,191.7L841.2,191.7C842.6,191.7 843.7,192 844.5,192.7 845.3,193.4 845.7,194.4 845.7,195.7 845.7,196.9 845.2,198 844.4,198.8 843.5,199.6 842.3,200 840.9,200L839.1,200 839.1,205 837.5,205 837.5,191.7z M846.8,191.7L856,191.7 856,193.1 852.2,193.1 852.2,205 850.6,205 850.6,193.1 846.8,193.1 846.8,191.7z M862.7,192.9C861.3,192.9 860.2,193.4 859.3,194.4 858.5,195.4 858,196.7 858,198.4 858,200 858.4,201.3 859.3,202.3 860.1,203.3 861.3,203.8 862.6,203.8 864.1,203.8 865.2,203.3 866.1,202.4 866.9,201.4 867.3,200.1 867.3,198.4 867.3,196.6 866.9,195.3 866.1,194.3 865.3,193.4 864.2,192.9 862.7,192.9z M862.8,191.5C864.7,191.5 866.2,192.1 867.3,193.3 868.4,194.6 869,196.2 869,198.2 869,200.4 868.4,202.1 867.2,203.3 866.1,204.6 864.6,205.2 862.6,205.2 860.7,205.2 859.2,204.6 858.1,203.4 857,202.1 856.4,200.5 856.4,198.5 856.4,196.4 857,194.7 858.1,193.4 859.3,192.1 860.9,191.5 862.8,191.5z M873.1,193.1L873.1,198.6 874.8,198.6C875.9,198.6 876.7,198.3 877.2,197.8 877.8,197.3 878.1,196.6 878.1,195.7 878.1,194 877.1,193.1 875,193.1L873.1,193.1z M871.6,191.7L875.2,191.7C876.7,191.7 877.8,192 878.6,192.7 879.3,193.4 879.7,194.4 879.7,195.7 879.7,196.9 879.3,198 878.4,198.8 877.6,199.6 876.4,200 874.9,200L873.1,200 873.1,205 871.6,205 871.6,191.7z M886.2,191.5C887.6,191.5,888.5,191.6,889.1,191.9L889.1,193.7C888.3,193.2 887.3,192.9 886.1,192.9 885.7,192.9 885.4,192.9 885.1,193 884.7,193.1 884.4,193.2 884.2,193.3 883.9,193.5 883.7,193.7 883.5,194 883.3,194.2 883.3,194.5 883.3,194.9 883.3,195.2 883.3,195.5 883.4,195.8 883.6,196 883.8,196.2 884,196.4 884.3,196.7 884.6,196.8 884.9,197 885.3,197.2 885.7,197.4 886.1,197.7 886.6,197.9 887.1,198.2 887.5,198.4 887.9,198.7 888.3,199 888.6,199.3 888.9,199.6 889.2,199.9 889.4,200.3 889.6,200.7 889.7,201.1 889.7,201.6 889.7,202.3 889.5,202.9 889.3,203.3 889,203.8 888.7,204.1 888.2,204.4 887.8,204.7 887.3,204.9 886.7,205 886.2,205.2 885.6,205.2 884.9,205.2 884.7,205.2 884.5,205.2 884.2,205.2 883.8,205.1 883.5,205.1 883.2,205 882.9,205 882.6,204.9 882.3,204.8 882,204.7 881.8,204.6 881.6,204.5L881.6,202.6C881.8,202.8 882.1,203 882.4,203.1 882.7,203.3 883,203.4 883.3,203.5 883.6,203.6 883.9,203.7 884.3,203.7 884.6,203.8 884.9,203.8 885.2,203.8 886.1,203.8 886.9,203.6 887.3,203.3 887.8,202.9 888,202.4 888,201.8 888,201.4 888,201.1 887.8,200.8 887.6,200.5 887.4,200.3 887.1,200.1 886.9,199.9 886.5,199.7 886.2,199.5 885.8,199.3 885.4,199 884.9,198.8 884.5,198.6 884,198.3 883.6,198.1 883.2,197.9 882.9,197.6 882.6,197.3 882.3,197 882.1,196.7 881.9,196.3 881.7,196 881.6,195.5 881.6,195 881.6,194.4 881.8,193.9 882,193.4 882.3,193 882.6,192.6 883.1,192.3 883.5,192 884,191.8 884.6,191.7 885.1,191.5 885.7,191.5 886.2,191.5z" fill="#7BE9FF"/></g><rect width="1280" height="300" fill="url(#hs)" opacity=".55"/><rect x="0" y="118" width="1280" height="2" fill="#3DE3FF" opacity=".25"/></svg>
